<?xml version="1.0" encoding="UTF-8" standalone="no"?>
<!-- Created with Inkscape (http://www.inkscape.org/) -->

<svg
   version="1.1"
   id="svg1"
   width="102.27719"
   height="56.725861"
   viewBox="0 0 102.27719 56.725861"
   sodipodi:docname="acnl_clock.svg"
   inkscape:version="1.4 (86a8ad7, 2024-10-11)"
   inkscape:export-filename="acnl_clock.png"
   inkscape:export-xdpi="96"
   inkscape:export-ydpi="96"
   xmlns:inkscape="http://www.inkscape.org/namespaces/inkscape"
   xmlns:sodipodi="http://sodipodi.sourceforge.net/DTD/sodipodi-0.dtd"
   xmlns="http://www.w3.org/2000/svg"
   xmlns:svg="http://www.w3.org/2000/svg">
  <defs
     id="defs1">
    <inkscape:path-effect
       effect="fillet_chamfer"
       id="path-effect23"
       is_visible="true"
       lpeversion="1"
       nodesatellites_param="F,0,0,1,0,11.870504,0,1 @ F,0,0,1,0,11.870504,0,1 @ F,0,0,1,0,11.870504,0,1 @ F,0,0,1,0,11.870504,0,1"
       radius="12"
       unit="px"
       method="auto"
       mode="F"
       chamfer_steps="1"
       flexible="false"
       use_knot_distance="true"
       apply_no_radius="true"
       apply_with_radius="true"
       only_selected="false"
       hide_knots="false" />
    <inkscape:path-effect
       effect="fillet_chamfer"
       id="path-effect21"
       is_visible="true"
       lpeversion="1"
       nodesatellites_param="F,0,0,1,0,11.870504,0,1 @ F,0,0,1,0,11.870504,0,1 @ F,0,0,1,0,11.870504,0,1 @ F,0,0,1,0,11.870504,0,1"
       radius="12"
       unit="px"
       method="auto"
       mode="F"
       chamfer_steps="1"
       flexible="false"
       use_knot_distance="true"
       apply_no_radius="true"
       apply_with_radius="true"
       only_selected="false"
       hide_knots="false" />
    <inkscape:path-effect
       effect="fillet_chamfer"
       id="path-effect19"
       is_visible="true"
       lpeversion="1"
       nodesatellites_param="F,0,0,1,0,10.509895,0,1 @ F,0,1,1,0,0,0,1 @ F,0,1,1,0,0,0,1 @ F,0,0,1,0,10.509895,0,1"
       radius="0"
       unit="px"
       method="auto"
       mode="F"
       chamfer_steps="1"
       flexible="false"
       use_knot_distance="true"
       apply_no_radius="true"
       apply_with_radius="true"
       only_selected="true"
       hide_knots="false" />
    <inkscape:path-effect
       effect="fillet_chamfer"
       id="path-effect18"
       is_visible="true"
       lpeversion="1"
       nodesatellites_param="F,0,0,1,0,0,0,1 @ F,0,0,1,0,0,0,1 @ F,0,0,1,0,0,0,1 @ F,0,0,1,0,0,0,1"
       radius="0"
       unit="px"
       method="auto"
       mode="F"
       chamfer_steps="1"
       flexible="false"
       use_knot_distance="true"
       apply_no_radius="true"
       apply_with_radius="true"
       only_selected="false"
       hide_knots="false" />
    <inkscape:path-effect
       effect="fillet_chamfer"
       id="path-effect14"
       is_visible="true"
       lpeversion="1"
       nodesatellites_param="F,0,0,1,0,9.1261359,0,1 @ F,0,0,1,0,9.1261359,0,1 @ F,0,0,1,0,9.1261359,0,1 @ F,0,0,1,0,9.1261359,0,1"
       radius="9"
       unit="px"
       method="auto"
       mode="F"
       chamfer_steps="1"
       flexible="false"
       use_knot_distance="true"
       apply_no_radius="true"
       apply_with_radius="true"
       only_selected="false"
       hide_knots="false" />
    <inkscape:path-effect
       effect="fillet_chamfer"
       id="path-effect12"
       is_visible="true"
       lpeversion="1"
       nodesatellites_param="F,0,0,1,0,11.870504,0,1 @ F,0,0,1,0,11.870504,0,1 @ F,0,0,1,0,11.870504,0,1 @ F,0,0,1,0,11.870504,0,1"
       radius="12"
       unit="px"
       method="auto"
       mode="F"
       chamfer_steps="1"
       flexible="false"
       use_knot_distance="true"
       apply_no_radius="true"
       apply_with_radius="true"
       only_selected="false"
       hide_knots="false" />
    <clipPath
       clipPathUnits="userSpaceOnUse"
       id="clipPath16">
      <path
         id="path16"
         style="fill:#dfa85a;stroke-width:0.986213;stroke-linecap:square;stroke-linejoin:round;stroke-miterlimit:1;paint-order:fill markers stroke"
         inkscape:label="daybump"
         d="m 76.02539,183.73242 c -4.881182,6e-5 -9.573274,3.39901 -11.718749,7.79297 -3.077254,-0.25416 -6.247126,-0.39258 -9.492188,-0.39258 -28.243072,0 -51.1386801,10.07062 -51.1386718,22.49219 5.8e-6,12.42158 8.6575158,22.49023 51.1386718,22.49023 42.481156,0 51.138657,-10.06865 51.138667,-22.49023 0,-3.42375 -1.74802,-6.66749 -4.85937,-9.57227 0.71341,-1.57291 1.12319,-3.21533 1.12304,-4.80859 v -2.26758 c 5.8e-4,-6.53049 -6.854909,-13.24407 -13.496087,-13.24414 z" />
    </clipPath>
    <clipPath
       clipPathUnits="userSpaceOnUse"
       id="clipPath5">
      <path
         style="fill:#e3c890;fill-opacity:1;stroke:none;stroke-width:6.05835;stroke-linecap:square;stroke-linejoin:round;stroke-miterlimit:1;stroke-opacity:1;paint-order:fill markers stroke"
         id="path6"
         width="31.016951"
         height="23.050848"
         x="66.779663"
         y="187.11864"
         inkscape:path-effect="#path-effect21"
         sodipodi:type="rect"
         d="m 66.779663,187.11864 h 31.016951 v 23.05085 H 66.779663 Z"
         transform="matrix(0.8584906,0,0,1.0245924,7.9868886,-6.9272295)"
         inkscape:label="day" />
    </clipPath>
  </defs>
  <sodipodi:namedview
     id="namedview1"
     pagecolor="#505050"
     bordercolor="#eeeeee"
     borderopacity="1"
     inkscape:showpageshadow="0"
     inkscape:pageopacity="0"
     inkscape:pagecheckerboard="0"
     inkscape:deskcolor="#505050"
     inkscape:zoom="2.95"
     inkscape:cx="106.10169"
     inkscape:cy="20.338983"
     inkscape:window-width="1600"
     inkscape:window-height="930"
     inkscape:window-x="-6"
     inkscape:window-y="-6"
     inkscape:window-maximized="1"
     inkscape:current-layer="svg1" />
  <g
     inkscape:groupmode="layer"
     id="layer2"
     inkscape:label="Layer 1"
     transform="translate(-3.6758371,-182.37288)">
    <path
       id="path2"
       style="fill:#8d682c;fill-opacity:1;stroke:none;stroke-width:5.60572;stroke-linecap:square;stroke-linejoin:round;stroke-miterlimit:1;paint-order:fill markers stroke"
       inkscape:label="bg shadow"
       d="m 105.95303,216.60748 c -1e-5,12.42158 -5.77609,22.49126 -51.138598,22.49126 -45.3625119,0 -51.1385892,-10.06968 -51.1385949,-22.49126 -8.4e-6,-12.42157 22.8955229,-22.49126 51.1385949,-22.49126 28.243074,0 51.138608,10.06969 51.138598,22.49126 z"
       sodipodi:nodetypes="szsss" />
    <path
       id="path14"
       style="fill:#dfa85a;stroke-linecap:square;stroke-linejoin:round;stroke-miterlimit:1;paint-order:fill markers stroke"
       d="m 75.905768,183.13583 c -6.677668,7e-5 -13.008966,6.43214 -13.008385,13.1098 v 4.79713 c -5.81e-4,6.67767 6.330717,12.15652 13.008385,12.15659 h 12.765067 c 6.677668,-7e-5 13.571365,-7.52399 13.570785,-14.20166 v -2.31878 c 5.8e-4,-6.67766 -6.893117,-13.54301 -13.570785,-13.54308 z"
       transform="matrix(0.99453552,0,0,0.97796097,0.5344077,4.632166)"
       inkscape:label="daybump"
       sodipodi:nodetypes="ccccccccc" />
    <path
       id="path1"
       style="fill:#dfa85a;fill-opacity:1;stroke:none;stroke-width:5.60572;stroke-linecap:square;stroke-linejoin:round;stroke-miterlimit:1;paint-order:fill markers stroke"
       inkscape:label="bg"
       d="m 105.95303,213.62443 c -1e-5,12.42158 -8.657442,22.49126 -51.138598,22.49126 -42.481156,0 -51.1385892,-10.06968 -51.1385949,-22.49126 -8.4e-6,-12.42157 22.8955229,-22.49126 51.1385949,-22.49126 28.243074,0 51.138608,10.06969 51.138598,22.49126 z"
       sodipodi:nodetypes="szsss" />
    <g
       id="g6"
       clip-path="url(#clipPath16)"
       inkscape:label="woodgrain">
      <path
         id="path3"
         style="display:inline;fill:#cc9143;stroke-width:5;stroke-linecap:square;stroke-linejoin:round;stroke-miterlimit:1;paint-order:fill markers stroke"
         transform="rotate(-9.606444)"
         d="m 22.191746,210.6362 c 5e-6,5.56965 -8.195462,10.08475 -18.3050842,10.08475 -10.1096222,0 -18.3050818,-4.5151 -18.3050838,-10.08475 -6e-6,-13.8033 8.1954616,-10.08475 18.3050838,-10.08475 10.1096222,0 18.3050892,4.5151 18.3050842,10.08475 z"
         sodipodi:nodetypes="sssss" />
      <path
         id="path4"
         style="display:inline;fill:#cc9143;fill-opacity:1;stroke:none;stroke-width:6.1955;stroke-linecap:square;stroke-linejoin:round;stroke-miterlimit:1;paint-order:fill markers stroke"
         d="m 37.085049,187.57734 c -3.185728,-0.65201 -6.469699,-0.98251 -9.76799,-0.98304 -20.8449444,-3.3e-4 -39.89343,9.80805 -38.262264,28.09085 1.5759154,17.66352 17.4170647,29.52089 38.262828,29.52032 20.844409,-4.9e-4 39.737184,-12.44945 39.736633,-28.35778 -5.2e-4,-25.00179 -13.469215,-24.89608 -29.969207,-28.27035 z m -11.954034,5.51025 c 12.994358,2.696 37.870646,-9.56146 30.187492,16.58195 -2.486783,8.46176 -18.360272,19.60782 -35.868537,20.94911 -14.3066433,1.09602 -28.3796957,-10.17985 -27.4593153,-21.88918 0.8452041,-10.74626 15.1823355,-17.75936 29.7178483,-16.18139 1.14889,0.12474 2.292173,0.30496 3.422512,0.53951 z"
         transform="matrix(0.97489632,-0.2226593,0.12186757,0.99254637,0,0)"
         sodipodi:nodetypes="ccsccccsscsc" />
    </g>
    <path
       style="opacity:0.282;mix-blend-mode:multiply;fill:#92733d;fill-opacity:1;stroke:none;stroke-width:5;stroke-linecap:square;stroke-linejoin:round;stroke-miterlimit:1;paint-order:fill markers stroke"
       d="m 14.067797,185.08474 -3.670654,25.10531 53.501162,2.52182 3.81356,-21.77966 z"
       id="path8"
       sodipodi:nodetypes="ccccc"
       inkscape:label="datebox shadow" />
    <path
       style="fill:#f5e5a2;fill-opacity:1;stroke:none;stroke-width:5;stroke-linecap:square;stroke-linejoin:round;stroke-miterlimit:1;paint-order:fill markers stroke"
       d="m 11.864407,182.37288 -2.7118646,24.74576 53.7288136,4.23729 4.40678,-21.69491 z"
       id="path24"
       sodipodi:nodetypes="ccccc"
       inkscape:label="datebox" />
    <path
       style="fill:#e9d097;fill-opacity:1;stroke:none;stroke-width:6.05835;stroke-linecap:square;stroke-linejoin:round;stroke-miterlimit:1;stroke-opacity:1;paint-order:fill markers stroke"
       id="rect12"
       width="31.016951"
       height="23.050848"
       x="66.779663"
       y="187.11864"
       inkscape:path-effect="#path-effect12"
       sodipodi:type="rect"
       d="m 78.650167,187.11864 h 7.275943 a 11.870504,11.870504 45 0 1 11.870504,11.8705 11.530589,11.530589 136.71497 0 1 -11.870504,11.18035 H 78.650167 A 11.870504,11.870504 45 0 1 66.779663,198.29898 11.530589,11.530589 136.71497 0 1 78.650167,187.11864 Z"
       transform="matrix(0.99453552,0,0,0.97796097,0.5344077,4.632166)"
       inkscape:label="day shadow" />
    <path
       id="path17"
       transform="matrix(1.1584699,0,0,0.95448779,-8.7181623,11.244126)"
       d="m 77.580001,186.81628 20.070307,-0.40793 0.146306,23.76114 H 77.289558 A 10.377832,10.377832 45.362248 0 1 66.912556,199.66044 l 0.02683,-2.12154 a 10.862215,10.862215 134.78006 0 1 10.640618,-10.72262 z"
       style="fill:#f6e1a9;fill-opacity:1;stroke:none;stroke-width:6.05835;stroke-linecap:square;stroke-linejoin:round;stroke-miterlimit:1;stroke-opacity:1;paint-order:fill markers stroke"
       inkscape:path-effect="#path-effect19"
       inkscape:original-d="m 67.072276,187.02985 30.578032,-0.6215 0.146306,23.76114 H 66.779663 Z"
       inkscape:label="day light"
       clip-path="url(#clipPath5)"
       sodipodi:nodetypes="ccccc" />
  </g>
</svg>
